<svg width="50" height="50" viewBox="0 0 50 50" fill="none" xmlns="http://www.w3.org/2000/svg">
<g filter="url(#filter0_b_11_231)">
<path d="M5.23541 26.7354L24.0312 37.2354C24.3407 37.4093 24.6896 37.5008 25.0445 37.5011C25.3995 37.5015 25.7485 37.4107 26.0583 37.2375L44.7625 26.8208C45.0874 26.6401 45.3581 26.3758 45.5463 26.0552C45.7346 25.7346 45.8337 25.3695 45.8333 24.9977C45.8329 24.6259 45.7329 24.261 45.5439 23.9409C45.3549 23.6208 45.0837 23.357 44.7583 23.1771L25.9625 12.7604C25.654 12.5894 25.3072 12.4994 24.9544 12.4991C24.6017 12.4987 24.2547 12.5879 23.9458 12.7583L5.24166 23.0917C4.91623 23.2714 4.64483 23.535 4.45562 23.855C4.26642 24.1751 4.16631 24.5399 4.16567 24.9117C4.16503 25.2835 4.26389 25.6486 4.452 25.9693C4.6401 26.29 4.9106 26.5545 5.23541 26.7354Z" fill="white" fill-opacity="0.6"/>
<path d="M7.26042 31.5125L5.2375 35.1542L23.9875 45.5709C24.2969 45.7427 24.645 45.8329 24.999 45.8329C25.3529 45.8329 25.701 45.7427 26.0104 45.5709L44.7604 35.1542L42.7375 31.5125L25 41.3667L7.26042 31.5125ZM41.6667 16.6667V12.5H45.8333V8.33335H41.6667V4.16669H37.5V8.33335H33.3333V12.5H37.5V16.6667H41.6667Z" fill="white" fill-opacity="0.6"/>
</g>
<defs>
<filter id="filter0_b_11_231" x="-4" y="-4" width="58" height="58" filterUnits="userSpaceOnUse" color-interpolation-filters="sRGB">
<feFlood flood-opacity="0" result="BackgroundImageFix"/>
<feGaussianBlur in="BackgroundImage" stdDeviation="2"/>
<feComposite in2="SourceAlpha" operator="in" result="effect1_backgroundBlur_11_231"/>
<feBlend mode="normal" in="SourceGraphic" in2="effect1_backgroundBlur_11_231" result="shape"/>
</filter>
</defs>
</svg>
