<svg width="28" height="28" viewBox="0 0 28 28" fill="none" xmlns="http://www.w3.org/2000/svg">
<g filter="url(#filter0_d_4_19)">
<path d="M4.4196 0.419604C4.55228 0.286595 4.70989 0.181067 4.88341 0.109064C5.05693 0.0370616 5.24295 0 5.43081 0C5.61868 0 5.8047 0.0370616 5.97822 0.109064C6.15174 0.181067 6.30935 0.286595 6.44202 0.419604L14.0004 7.98082L21.5587 0.419604C21.6915 0.286811 21.8492 0.181473 22.0227 0.109605C22.1962 0.0377376 22.3821 0.00074779 22.5699 0.00074779C22.7577 0.00074779 22.9437 0.0377376 23.1172 0.109605C23.2907 0.181473 23.4484 0.286811 23.5811 0.419604C23.7139 0.552398 23.8193 0.710047 23.8911 0.88355C23.963 1.05705 24 1.24301 24 1.43081C24 1.61861 23.963 1.80457 23.8911 1.97808C23.8193 2.15158 23.7139 2.30923 23.5811 2.44202L16.0199 10.0004L23.5811 17.5587C23.7139 17.6915 23.8193 17.8492 23.8911 18.0227C23.963 18.1962 24 18.3821 24 18.5699C24 18.7577 23.963 18.9437 23.8911 19.1172C23.8193 19.2907 23.7139 19.4484 23.5811 19.5811C23.4484 19.7139 23.2907 19.8193 23.1172 19.8911C22.9437 19.963 22.7577 20 22.5699 20C22.3821 20 22.1962 19.963 22.0227 19.8911C21.8492 19.8193 21.6915 19.7139 21.5587 19.5811L14.0004 12.0199L6.44202 19.5811C6.30923 19.7139 6.15158 19.8193 5.97808 19.8911C5.80457 19.963 5.61861 20 5.43081 20C5.24301 20 5.05705 19.963 4.88355 19.8911C4.71005 19.8193 4.5524 19.7139 4.4196 19.5811C4.28681 19.4484 4.18147 19.2907 4.10961 19.1172C4.03774 18.9437 4.00075 18.7577 4.00075 18.5699C4.00075 18.3821 4.03774 18.1962 4.10961 18.0227C4.18147 17.8492 4.28681 17.6915 4.4196 17.5587L11.9808 10.0004L4.4196 2.44202C4.2866 2.30935 4.18107 2.15174 4.10906 1.97822C4.03706 1.8047 4 1.61868 4 1.43081C4 1.24295 4.03706 1.05693 4.10906 0.883407C4.18107 0.709888 4.2866 0.552277 4.4196 0.419604Z" fill="white" fill-opacity="0.3" shape-rendering="crispEdges"/>
</g>
<defs>
<filter id="filter0_d_4_19" x="0" y="0" width="28" height="28" filterUnits="userSpaceOnUse" color-interpolation-filters="sRGB">
<feFlood flood-opacity="0" result="BackgroundImageFix"/>
<feColorMatrix in="SourceAlpha" type="matrix" values="0 0 0 0 0 0 0 0 0 0 0 0 0 0 0 0 0 0 127 0" result="hardAlpha"/>
<feOffset dy="4"/>
<feGaussianBlur stdDeviation="2"/>
<feComposite in2="hardAlpha" operator="out"/>
<feColorMatrix type="matrix" values="0 0 0 0 0 0 0 0 0 0 0 0 0 0 0 0 0 0 0.25 0"/>
<feBlend mode="normal" in2="BackgroundImageFix" result="effect1_dropShadow_4_19"/>
<feBlend mode="normal" in="SourceGraphic" in2="effect1_dropShadow_4_19" result="shape"/>
</filter>
</defs>
</svg>
