<svg width="57" height="34" viewBox="0 0 57 34" fill="none" xmlns="http://www.w3.org/2000/svg">
<g clip-path="url(#clip0_7_49)">
<path d="M29.0998 26.5088L13.8126 9.03488C12.0084 6.97894 13.4747 3.75 16.2128 3.75H46.7873C47.4 3.74948 48 3.92559 48.5152 4.25726C49.0305 4.58893 49.4392 5.06209 49.6925 5.62008C49.9458 6.17808 50.0328 6.79724 49.9432 7.40344C49.8537 8.00964 49.5913 8.57717 49.1874 9.03806L33.9002 26.5056C33.601 26.8479 33.232 27.1223 32.8181 27.3103C32.4041 27.4984 31.9547 27.5956 31.5 27.5956C31.0453 27.5956 30.5959 27.4984 30.1819 27.3103C29.768 27.1223 29.399 26.8479 29.0998 26.5056V26.5088Z" fill="white" fill-opacity="0.5"/>
</g>
<defs>
<clipPath id="clip0_7_49">
<rect width="57" height="34" fill="white"/>
</clipPath>
</defs>
</svg>
