<svg width="37" height="39" viewBox="0 0 37 39" fill="none" xmlns="http://www.w3.org/2000/svg">
<path fill-rule="evenodd" clip-rule="evenodd" d="M2.1902 8.73026C1.34634 9.20229 0.66434 10.3246 0.664118 11.2389V11.2391L0.658997 27.7436C0.658551 28.6583 1.34033 29.7841 2.18197 30.2592L16.9145 38.5788C17.7577 39.0547 19.1208 39.055 19.9626 38.5809L34.747 30.2572C35.5884 29.7833 36.2715 28.6566 36.2718 27.7409L36.278 11.2606C36.2782 10.3424 35.5953 9.21969 34.7523 8.74765L19.9947 0.480068C19.1504 0.00700167 17.7855 0.00700182 16.9427 0.478412L2.1902 8.73026ZM18.4254 17.5088L3.76706 9.89854H3.76683L18.4018 2.35494L32.4007 9.99812L18.4254 17.5088ZM2.58453 27.2389C2.58453 27.2389 2.82166 12.6986 2.82166 12.3616H2.82188C2.82188 12.0243 17.1788 20.1652 17.1788 20.1652L17.0525 36.1921L3.33421 28.4943C2.91116 28.2568 2.57696 27.6956 2.58453 27.2389ZM33.3298 28.1535L19.7674 36.1573V20.0462L34.2701 12.2798V26.5637C34.2701 27.136 33.849 27.8471 33.3298 28.1535ZM4.16093 19.4505C4.83736 20.5397 6.249 20.9594 7.31375 20.3876C8.37871 19.816 8.69377 18.4694 8.01734 17.3802C7.34113 16.291 5.92949 15.8714 4.86453 16.4432C3.79978 17.0148 3.48473 18.3614 4.16093 19.4505ZM11.2859 23.7982C11.9624 24.8874 13.374 25.307 14.4387 24.7352C15.5037 24.1636 15.8188 22.8171 15.1423 21.7279C14.4661 20.6387 13.0545 20.219 11.9895 20.7909C10.9248 21.3625 10.6097 22.709 11.2859 23.7982ZM4.16093 27.1107C4.83736 28.1999 6.249 28.6195 7.31375 28.0477C8.37871 27.4761 8.69377 26.1296 8.01734 25.0404C7.34113 23.9512 5.92949 23.5315 4.86453 24.1034C3.79978 24.675 3.48473 26.0215 4.16093 27.1107ZM11.2859 31.4584C11.9624 32.5475 13.374 32.9672 14.4387 32.3954C15.5037 31.8238 15.8188 30.4772 15.1423 29.388C14.4661 28.2989 13.0545 27.8792 11.9895 28.451C10.9248 29.0226 10.6097 30.3692 11.2859 31.4584ZM28.7061 17.1732C29.3825 16.084 30.794 15.6644 31.8589 16.2362C32.9239 16.8078 33.239 18.1543 32.5625 19.2435C31.8863 20.3327 30.4747 20.7524 29.4097 20.1805C28.3447 19.6089 28.0299 18.2624 28.7061 17.1732ZM25.0906 23.1771C25.7671 22.0879 27.1787 21.6683 28.2434 22.2401C29.3084 22.8117 29.6235 24.1582 28.947 25.2474C28.2708 26.3366 26.8592 26.7563 25.7942 26.1844C24.7295 25.6128 24.4144 24.2663 25.0906 23.1771ZM21.3055 28.974C21.9819 27.8848 23.3935 27.4651 24.4583 28.037C25.5232 28.6086 25.8383 29.9551 25.1619 31.0443C24.4857 32.1335 23.074 32.5531 22.0091 31.9813C20.9443 31.4097 20.6293 30.0632 21.3055 28.974ZM16.0508 9.56253C16.0508 8.30481 17.1972 7.28518 18.6113 7.28518C20.0254 7.28518 21.1719 8.30481 21.1719 9.56253C21.1719 10.8202 20.0254 11.8399 18.6113 11.8399C17.1972 11.8399 16.0508 10.8202 16.0508 9.56253Z" fill="white" fill-opacity="0.6"/>
</svg>
